#
#
#

mtllib Square.mtl


#
#  Mesh
#
g  Mesh


#
#  Mesh_Material
#
usemtl  Mesh_Material

v 2.500000 0.000000 -2.500000
v -2.500000 0.000000 -2.500000
v -2.500000 0.000000 2.500000
v 2.500000 0.000000 2.500000
v 2.500000 -0.400000 2.500000
v -2.500000 -0.400000 2.500000
v -2.500000 -0.400000 -2.500000
v 2.500000 -0.400000 -2.500000
vn 0.333333 0.666667 -0.666667
vn -0.816497 0.408248 -0.408248
vn -0.333333 0.666667 0.666667
vn 0.816497 0.408248 0.408248
vn 0.333333 -0.666667 0.666667
vn -0.816497 -0.408248 0.408248
vn -0.333333 -0.666667 -0.666667
vn 0.816497 -0.408248 -0.408248
vt 0.375000 0.000000
vt 0.625000 0.000000
vt 0.625000 0.250000
vt 0.375000 0.250000
vt 0.625000 0.500000
vt 0.375000 0.500000
vt 0.625000 0.750000
vt 0.375000 0.750000
vt 0.625000 1.000000
vt 0.375000 1.000000
vt 0.125000 0.500000
vt 0.125000 0.750000
vt 0.875000 0.500000
vt 0.875000 0.750000
f 1/1/1 2/2/2 3/3/3
f 1/1/1 3/3/3 4/4/4
f 5/4/5 4/3/4 3/5/3
f 5/4/5 3/5/3 6/6/6
f 6/6/6 3/5/3 2/7/2
f 6/6/6 2/7/2 7/8/7
f 7/8/7 8/7/8 5/9/5
f 7/8/7 5/9/5 6/10/6
f 8/11/8 1/6/1 4/8/4
f 8/11/8 4/8/4 5/12/5
f 7/5/7 2/13/2 1/14/1
f 7/5/7 1/14/1 8/7/8
